<svg width="98" height="22" viewBox="0 0 98 22" fill="none" xmlns="http://www.w3.org/2000/svg">
<path d="M82.6587 4.4C81.4377 4.4 80.4671 5.40572 80.4671 6.6C80.4671 7.82571 81.4377 8.8 82.6587 8.8H84.8503C90.5485 8.8 95.4327 12.4771 97.2486 17.6C97.3112 17.7886 97.3425 17.9457 97.4051 18.1343C97.7808 19.36 98 20.6486 98 22H76.0839V17.6H92.427C92.3957 17.5371 92.3644 17.4743 92.3018 17.4114C90.7677 14.8971 88.0125 13.2 84.8503 13.2H82.6587C80.655 13.2 78.8704 12.32 77.6807 10.9371C77.1484 10.3086 76.7101 9.61714 76.4283 8.8C76.2092 8.14 76.0839 7.38571 76.0839 6.6C76.0839 2.98571 79.0269 0 82.6587 0H98V4.4H82.6587Z" fill="#4F8BFF"/>
<path d="M66.3047 0H71.7837V22H67.4005V5.87714L66.336 7.29143L63.5495 11L60.8256 14.6771L58.0705 11L54.2508 5.87714V22H49.8676V0H55.3153L60.8256 7.35429L66.3047 0Z" fill="#4F8BFF"/>
<path d="M37.8977 17.6H46.6641V22H37.8977C30.6341 22 24.748 16.0914 24.748 8.8V0H29.1313V8.8C29.1313 13.6714 33.0448 17.6 37.8977 17.6Z" fill="#4F8BFF"/>
<path d="M21.5404 4.4C21.7595 5.09143 21.9161 5.84572 21.9161 6.6C21.9161 7.38571 21.7595 8.14 21.5404 8.8C21.2586 9.61714 20.8203 10.3086 20.288 10.9371C19.0983 12.32 17.3137 13.2 15.3412 13.2H13.1496C8.29679 13.2 4.38321 17.16 4.38321 22H0V0H15.3412C18.1903 0 20.6324 1.85429 21.5404 4.4ZM15.3412 8.8C16.531 8.8 17.5328 7.82571 17.5328 6.6C17.5328 5.40572 16.531 4.4 15.3412 4.4H4.38321V12.1629C5.7921 10.9057 7.48277 9.93143 9.36129 9.36572C10.551 9.02 11.8034 8.8 13.1496 8.8H15.3412Z" fill="#4F8BFF"/>
</svg>
